<svg width="1600" height="900" viewBox="0 0 1600 900" fill="none" xmlns="http://www.w3.org/2000/svg">
<rect width="1600" height="900" fill="#0A0A0A"/>
<rect x="933" y="80" width="520" height="640" rx="24" fill="#1C2C54"/>
<rect x="790" y="160" width="330" height="470" rx="18" fill="#F4A300" fill-opacity="0.9"/>
<rect x="320" y="220" width="380" height="520" rx="24" fill="#C1442E"/>
<circle cx="1220" cy="180" r="120" fill="#FF6B5E" fill-opacity="0.8"/>
<path d="M120 760C520 580 710 390 850 250C930 170 1010 150 1200 150" stroke="#F5E9DA" stroke-width="8" stroke-linecap="round"/>
<path d="M210 760C390 615 510 520 630 450" stroke="#F5E9DA" stroke-opacity="0.6" stroke-width="4" stroke-linecap="round" stroke-dasharray="6 18"/>
<rect x="120" y="120" width="180" height="220" rx="90" fill="#1F7A63" fill-opacity="0.75"/>
<rect x="1140" y="520" width="170" height="140" rx="16" fill="#F5E9DA" fill-opacity="0.15" stroke="#F5E9DA" stroke-opacity="0.4"/>
<text x="116" y="124" fill="#F5E9DA" font-family="Cormorant Garamond, serif" font-size="126" font-weight="600">Samuel</text>
<text x="122" y="228" fill="#F5E9DA" font-family="Inter, sans-serif" font-size="24" letter-spacing="12">STUDIO / COLOMBIA</text>
<text x="122" y="320" fill="#F5E9DA" font-family="Inter, sans-serif" font-size="22" letter-spacing="6">EDITORIAL   /   MOTION   /   CAMPAIGN</text>
</svg>
